<svg xmlns="http://www.w3.org/2000/svg" xmlns:xlink="http://www.w3.org/1999/xlink" width="96" height="96" viewBox="0 0 96 96" preserveAspectRatio="xMinYMin meet"><defs><linearGradient id="mouth_gradient" spreadMethod="pad" x1="0.7" x2="0" y1="0.9" y2="0"><stop id="jq_stop_4918" offset="0" stop-color="#f20000"/><stop id="jq_stop_809" offset="0.9" stop-color="#191919"/></linearGradient><linearGradient id="wire_gradient" x1="0" x2="1" y1="0.3" y2="0.8"><stop id="jq_stop_6403" offset="0" stop-color="#9b9b9b"/><stop id="jq_stop_4545" offset="0.55" stop-color="#f9f9f9"/></linearGradient><linearGradient id="head_gradient" x1="0" x2="1" y1="0.25" y2="0.75"><stop id="jq_stop_1180" offset="0.15" stop-color="#ffffff"/><stop id="jq_stop_1294" offset="0.50" stop-color="#e3e3e3"/><stop id="jq_stop_945" offset="1" stop-color="#ffffff"/></linearGradient></defs><g class="layer"><path d="m39.07,15.74c-1.44,-2.72 -4.17,-5.35 -7.21,-4.71c-3.04,0.64 -6.87,6.07 -11.98,10.06c-4.47,2.88 -7.8,1.34 -10.54,-0.16c-3.65,-1.99 -7.19,-8.15 -3.51,-13.74c3.67,-5.59 13.98,-6.17 14.06,-4.15c-0.1,1.47 -3.92,2.16 -7.87,4.63c-4.43,3.01 0.16,12.7 8.83,1.76c2.24,-2.72 5.27,-6.39 11.98,-6.55c6.71,-0.16 14.44,5.09 18.43,11.8c-4.16,0 -8.53,0.49 -12.19,1.06z" fill="url(#wire_gradient)" id="wire" stroke="#333333" stroke-linecap="null" stroke-linejoin="null"/><path d="m90.99,65.43c-0.11,11.9 -9.2,26.64 -32.11,27.83c-22.75,-0.25 -32.5,-11.75 -36.25,-26.5c-1.57,-7.31 -1.31,-30.84 0.43,-41.98c2.49,-4.85 8.42,-7.32 15.61,-8.9c7.19,-1.58 19.36,-1.58 23.89,0.1c12.99,6.47 28.86,33.23 28.43,49.45z" fill="url(#head_gradient)" id="head" stroke="#4c4c4c" stroke-linecap="round" stroke-linejoin="null"/><path d="m21.96,42.5c7.03,-6.87 13.43,-14.54 54.57,-13.42" fill="none" id="btns" stroke="#4c4c4c" stroke-linecap="round" stroke-linejoin="round"/><line fill="none" id="btn_sep" stroke="#4c4c4c" stroke-linecap="round" stroke-linejoin="null" x1="44.79" x2="49.75" y1="15.04" y2="29.88"/><ellipse cx="40" cy="53.63" fill="#ffffff" id="eye_L" rx="9" ry="9" stroke="#4c4c4c"/><ellipse cx="68.88" cy="45.5" fill="#ffffff" id="eye_R" rx="9" ry="9" stroke="#4c4c4c"/><ellipse cx="35" cy="54" fill="#000000" id="pupil_L" rx="3.5" ry="3.5" stroke="#000000"/><ellipse cx="74" cy="43" fill="#000000" id="pupil_R" rx="3.5" ry="3.5" stroke="#000000"/><ellipse cx="49" cy="27" fill="#6565cb" id="roll" rx="5" ry="7" stroke="#4c4c4c" stroke-linecap="null" transform="rotate(-15.4264, 49, 27)"/><path d="m48.27,49.65c-5.75,-5.43 -8.41,-6.83 -19.91,-8.27c0.45,-1.06 1.55,-2.25 2.84,-2.71c11.67,1.52 17.26,10.92 17.26,10.92l-0.19,0.06zl0,0z" fill="#000000" id="eyebrow_L" stroke="#000000"/><path d="m60.34,42.62c0.81,-4.79 5.53,-11.69 8.46,-13.74c0.75,-0.87 4.04,-0.93 4.91,0.12c-9.51,5.16 -13.37,13.62 -13.37,13.62zl0,0z" fill="#000000" id="eyebrow_R" stroke="#000000"/><path d="m78.53,67.7c-2.23,14.75 -28.47,15.53 -36.4,12.13c-3.49,-1.68 8.75,-22.13 16.28,-23.01c6.71,-1.17 19.99,8.14 20.12,10.88z" fill="url(#mouth_gradient)" id="mouth" stroke="#4c4c4c" stroke-linecap="round" stroke-linejoin="null"/><path d="m50.52,67.45l2.58,-3.94l1.92,2.36l1.98,-2.94l1.85,2.43l1.92,-4.66l2.17,2.24l1.2,-2.39l1.5,0.58l-0.03,-2.49c-8.19,-3.23 -10.68,-0.45 -16.22,5.72l1.12,3.09z" fill="#ffffff" id="teeth_top" stroke="#000000" stroke-linecap="round" stroke-width="0"/><path d="m74.23,70.3l-0.04,4.43l-5.7,-5.46l2.18,7.92l-1.63,0.82l-3.4,-2.73l0.22,3.9l-1.88,0.54l-3.28,-2.82l-1.62,3.75l-2.36,0.25l-4.12,-6.61l-0.35,6.66l-1.86,-0.01l-1.67,-2.08l-1.37,1.82c25.49,2.32 29.76,-9.93 29.96,-10.29l-0.53,0l-2.55,-0.09zl-1.5,0.03l1.5,-0.03z" fill="#ffffff" id="teeth_down" stroke="#000000" stroke-linecap="round" stroke-width="0"/></g></svg>
